<svg xmlns="http://www.w3.org/2000/svg" xmlns:xlink="http://www.w3.org/1999/xlink" version="1.1" width="1000" height="1000" viewBox="0 0 1000 1000" xml:space="preserve">
<desc>Created with Fabric.js 3.5.0</desc>
<defs>
</defs>
<rect x="0" y="0" width="100%" height="100%" fill="rgba(255,255,255,0)"/>
<g transform="matrix(1.2986 0 0 1.2986 499.8308 281.8021)" id="598889">
<path style="stroke: rgb(0,0,0); stroke-width: 1; stroke-dasharray: none; stroke-linecap: butt; stroke-dashoffset: 0; stroke-linejoin: miter; stroke-miterlimit: 4; is-custom-font: none; font-file-url: none; fill: rgb(0,0,0); fill-rule: nonzero; opacity: 1;" transform=" translate(-349.8834, -181.9971)" d="m 292.43 174.83 c 0.125 14.703 5.8633 28.805 16.047 39.41 c 10.18 10.609 24.035 16.926 38.719 17.652 v 32.031 h -39.199 v 0.003907 c -1.5469 0 -2.8008 1.25 -2.8008 2.7969 c 0 1.5469 1.2539 2.8008 2.8008 2.8008 h 83.777 c 1.5469 0 2.7969 -1.2539 2.7969 -2.8008 c 0 -1.5469 -1.25 -2.7969 -2.7969 -2.7969 h -39.199 l -0.003906 -32.035 c 14.699 -0.71484 28.562 -7.0234 38.758 -17.633 c 10.195 -10.609 15.941 -24.719 16.066 -39.43 c 17.359 -0.89453 25.199 -10.023 25.199 -29.512 l 0.003906 -39.648 c 0 -0.74219 -0.29687 -1.4531 -0.82031 -1.9805 c -0.52734 -0.52344 -1.2383 -0.82031 -1.9805 -0.82031 h -22.398 v -5.6016 l -0.003906 0.003907 c 0 -0.74219 -0.29297 -1.457 -0.82031 -1.9805 c -0.52344 -0.52734 -1.2344 -0.82031 -1.9766 -0.82031 h -109.43 c -1.5469 0 -2.8008 1.2539 -2.8008 2.8008 v 5.6016 h -22.398 v -0.003906 c -1.5469 0 -2.8008 1.2539 -2.8008 2.8008 v 39.648 c 0 19.488 7.8945 28.617 25.258 29.512 z m 134.79 -66.359 v 36.848 c 0 16.465 -5.6016 23.184 -19.602 23.969 l 0.003906 -60.816 z m -129.25 -8.3438 h 104.05 v 74.312 c 0 18.586 -9.9141 35.758 -26.012 45.051 c -16.098 9.2969 -35.926 9.2969 -52.023 0 c -16.098 -9.293 -26.012 -26.465 -26.012 -45.051 z m -25.258 8.3438 h 19.656 v 60.816 c -14.168 -0.78516 -19.656 -7.4492 -19.656 -23.969 z" stroke-linecap="round"/>
</g>
<g transform="matrix(1.2986 0 0 1.2986 499.9947 485.7777)" id="303745">
<path style="stroke: rgb(0,0,0); stroke-width: 1; stroke-dasharray: none; stroke-linecap: butt; stroke-dashoffset: 0; stroke-linejoin: miter; stroke-miterlimit: 4; is-custom-font: none; font-file-url: none; fill: rgb(0,0,0); fill-rule: nonzero; opacity: 1;" transform=" translate(-350, -338.0985)" d="m 496.72 372.79 c 0 1.5469 1.2539 2.8008 2.8008 2.8008 s 2.8008 -1.2539 2.8008 -2.8008 v -44.184 c 0 -0.74219 -0.29687 -1.457 -0.82031 -1.9805 c -0.52344 -0.52734 -1.2383 -0.82031 -1.9805 -0.82031 h -146.72 v -22.402 c 0 -1.543 -1.2539 -2.7969 -2.8008 -2.7969 s -2.8008 1.2539 -2.8008 2.7969 v 22.398 l -146.72 0.003906 c -1.5469 0 -2.8008 1.2539 -2.8008 2.8008 v 44.184 c 0 1.5469 1.2539 2.8008 2.8008 2.8008 s 2.8008 -1.2539 2.8008 -2.8008 v -41.387 h 293.44 z" stroke-linecap="round"/>
</g>
<g transform="matrix(1.2986 0 0 1.2986 305.8092 603.2597)" id="578564">
<path style="stroke: rgb(0,0,0); stroke-width: 1; stroke-dasharray: none; stroke-linecap: butt; stroke-dashoffset: 0; stroke-linejoin: miter; stroke-miterlimit: 4; is-custom-font: none; font-file-url: none; fill: rgb(0,0,0); fill-rule: nonzero; opacity: 1;" transform=" translate(-200.4811, -429.5233)" d="m 248.36 393.57 h -95.758 c -1.5469 0 -2.8008 1.2539 -2.8008 2.8008 v 66.305 c 0 0.74219 0.29297 1.4531 0.82031 1.9805 c 0.52344 0.52344 1.2344 0.82031 1.9805 0.82031 h 95.762 h -0.003906 c 0.74219 0 1.457 -0.29688 1.9805 -0.82031 c 0.52344 -0.52734 0.82031 -1.2383 0.82031 -1.9805 v -66.305 c 0 -0.74219 -0.29688 -1.4531 -0.82031 -1.9805 c -0.52344 -0.52344 -1.2383 -0.82031 -1.9805 -0.82031 z m -2.8008 66.305 h -90.16 v -60.703 h 90.16 z" stroke-linecap="round"/>
</g>
<g transform="matrix(1.2986 0 0 1.2986 694.1625 603.2597)" id="619494">
<path style="stroke: rgb(0,0,0); stroke-width: 1; stroke-dasharray: none; stroke-linecap: butt; stroke-dashoffset: 0; stroke-linejoin: miter; stroke-miterlimit: 4; is-custom-font: none; font-file-url: none; fill: rgb(0,0,0); fill-rule: nonzero; opacity: 1;" transform=" translate(-499.5211, -429.5233)" d="m 547.4 393.57 h -95.758 c -1.5469 0 -2.8008 1.2539 -2.8008 2.8008 v 66.305 c 0 0.74219 0.29688 1.4531 0.82031 1.9805 c 0.52344 0.52344 1.2383 0.82031 1.9805 0.82031 h 95.762 h -0.003906 c 0.74609 0 1.457 -0.29688 1.9805 -0.82031 c 0.52734 -0.52734 0.82031 -1.2383 0.82031 -1.9805 v -66.305 c 0 -0.74219 -0.29297 -1.4531 -0.82031 -1.9805 c -0.52344 -0.52344 -1.2344 -0.82031 -1.9805 -0.82031 z m -2.8008 66.305 h -90.156 v -60.703 h 90.16 z" stroke-linecap="round"/>
</g>
<g transform="matrix(1.2986 0 0 1.2986 499.9843 238.8144)" id="86204">
<path style="stroke: rgb(0,0,0); stroke-width: 1; stroke-dasharray: none; stroke-linecap: butt; stroke-dashoffset: 0; stroke-linejoin: miter; stroke-miterlimit: 4; is-custom-font: none; font-file-url: none; fill: rgb(0,0,0); fill-rule: nonzero; opacity: 1;" transform=" translate(-349.9985, -148.8923)" d="m 330.12 147.28 l 15.398 4.9844 l -9.5195 13.105 v -0.003906 c -0.91406 1.2539 -0.63672 3.0078 0.61719 3.9219 c 1.25 0.91016 3.0078 0.63672 3.918 -0.61719 l 9.4648 -13.105 l 9.5195 13.105 c 0.91406 1.2539 2.668 1.5273 3.9219 0.61719 c 0.60156 -0.4375 1.0039 -1.0977 1.1172 -1.832 c 0.11719 -0.73828 -0.066406 -1.4883 -0.50391 -2.0898 l -9.5195 -13.105 l 15.398 -4.9844 l 0.003906 0.003906 c 1.543 -0.48047 2.4102 -2.1211 1.9297 -3.668 c -0.48047 -1.5469 -2.1211 -2.4141 -3.668 -1.9336 l -15.398 4.9844 v -15.902 c 0 -1.5469 -1.2539 -2.8008 -2.8008 -2.8008 s -2.8008 1.2539 -2.8008 2.8008 v 16.184 l -15.398 -4.9844 c -1.5469 -0.48047 -3.1875 0.38281 -3.668 1.9297 c -0.48047 1.5469 0.38672 3.1914 1.9297 3.668 z" stroke-linecap="round"/>
</g>
</svg>